<svg width="220" height="200" viewBox="0 0 220 200" fill="none" xmlns="http://www.w3.org/2000/svg">
<g clip-path="url(#clip0_310_2650)">
<path d="M0.4 155.212C1.0666 154.146 2.1332 154.079 3.6 155.012C36.9332 174.346 73.2 184.012 112.4 184.012C138.533 184.012 164.333 179.146 189.8 169.412C190.467 169.146 191.433 168.746 192.7 168.212C193.967 167.679 194.867 167.279 195.4 167.012C197.4 166.212 198.967 166.612 200.1 168.212C201.233 169.812 200.867 171.279 199 172.612C196.6 174.346 193.533 176.346 189.8 178.612C178.333 185.412 165.533 190.679 151.4 194.412C137.267 198.146 123.467 200.012 110 200.012C89.2 200.012 69.5332 196.379 51 189.112C32.4666 181.846 15.8666 171.612 1.2 158.412C0.4 157.746 0 157.079 0 156.412C0 156.012 0.1332 155.612 0.4 155.212ZM60.6 98.2122C60.6 89.0122 62.8666 81.1456 67.4 74.6122C71.9332 68.0788 78.1332 63.1456 86 59.8122C93.2 56.7456 102.067 54.5456 112.6 53.2122C116.2 52.8122 122.067 52.2788 130.2 51.6122V48.2122C130.2 39.6788 129.267 33.9456 127.4 31.0122C124.6 27.0122 120.2 25.0122 114.2 25.0122H112.6C108.2 25.4122 104.4 26.8122 101.2 29.2122C98 31.6122 95.9332 34.9456 95 39.2122C94.4666 41.8788 93.1332 43.4122 91 43.8122L68 41.0122C65.7332 40.4788 64.6 39.2788 64.6 37.4122C64.6 37.0122 64.6666 36.5456 64.8 36.0122C67.0666 24.1456 72.6332 15.3456 81.5 9.61221C90.3666 3.87881 100.733 0.678807 112.6 0.012207H117.6C132.8 0.012207 144.667 3.94561 153.2 11.8122C154.538 13.1516 155.775 14.5889 156.9 16.1122C158.033 17.6456 158.933 19.0122 159.6 20.2122C160.267 21.4122 160.867 23.1456 161.4 25.4122C161.933 27.6788 162.333 29.2456 162.6 30.1122C162.867 30.9788 163.067 32.8456 163.2 35.7122C163.333 38.5788 163.4 40.2788 163.4 40.8122V89.2122C163.4 92.6788 163.9 95.8456 164.9 98.7122C165.9 101.579 166.867 103.646 167.8 104.912C168.733 106.179 170.267 108.212 172.4 111.012C173.2 112.212 173.6 113.279 173.6 114.212C173.6 115.279 173.067 116.212 172 117.012C160.933 126.612 154.933 131.812 154 132.612C152.4 133.812 150.467 133.946 148.2 133.012C146.333 131.412 144.7 129.879 143.3 128.412C141.9 126.946 140.9 125.879 140.3 125.212C139.7 124.546 138.733 123.246 137.4 121.312C136.067 119.379 135.133 118.079 134.6 117.412C127.133 125.546 119.8 130.612 112.6 132.612C108.067 133.946 102.467 134.612 95.8 134.612C85.5332 134.612 77.1 131.446 70.5 125.112C63.9 118.779 60.6 109.812 60.6 98.2122ZM95 94.2122C95 99.4122 96.3 103.579 98.9 106.712C101.5 109.846 105 111.412 109.4 111.412C109.8 111.412 110.367 111.346 111.1 111.212C111.833 111.079 112.333 111.012 112.6 111.012C118.2 109.546 122.533 105.946 125.6 100.212C127.067 97.6788 128.167 94.9122 128.9 91.9122C129.633 88.9122 130.033 86.4788 130.1 84.6122C130.167 82.7456 130.2 79.6788 130.2 75.4122V70.4122C122.467 70.4122 116.6 70.9456 112.6 72.0122C100.867 75.3456 95 82.7456 95 94.2122ZM179 158.612C179.267 158.079 179.667 157.546 180.2 157.012C183.533 154.746 186.733 153.212 189.8 152.412C194.867 151.079 199.8 150.346 204.6 150.212C205.933 150.079 207.2 150.146 208.4 150.412C214.4 150.946 218 151.946 219.2 153.412C219.733 154.212 220 155.412 220 157.012V158.412C220 163.079 218.733 168.579 216.2 174.912C213.667 181.246 210.133 186.346 205.6 190.212C204.933 190.746 204.333 191.012 203.8 191.012C203.533 191.012 203.267 190.946 203 190.812C202.2 190.412 202 189.679 202.4 188.612C207.333 177.012 209.8 168.946 209.8 164.412C209.8 162.946 209.533 161.879 209 161.212C207.667 159.612 203.933 158.812 197.8 158.812C195.533 158.812 192.867 158.946 189.8 159.212C186.467 159.612 183.4 160.012 180.6 160.412C179.8 160.412 179.267 160.279 179 160.012C178.733 159.746 178.667 159.479 178.8 159.212C178.8 159.079 178.867 158.879 179 158.612Z" fill="#1778BC"/>
</g>
<defs>
<clipPath id="clip0_310_2650">
<rect width="219.974" height="200" fill="white"/>
</clipPath>
</defs>
</svg>
