<svg width="589" height="200" viewBox="0 0 589 200" fill="none" xmlns="http://www.w3.org/2000/svg">
<g clip-path="url(#clip0_310_2677)">
<path d="M0.171872 200C0.171872 200 337.817 117.053 587.982 175.489L588.756 172.789C588.756 172.789 370.469 108.327 4.3653 186.843" fill="#1778BC"/>
<path d="M161.798 37.2258V50.9754C163.043 48.2232 164.624 44.4912 168.868 40.9578C173.464 37.0332 180.18 34.8669 186.726 34.8669C190.073 34.8669 193.433 35.4645 196.783 36.6414C207.211 40.566 210.218 48.8106 211.453 52.3419C219.588 37.2279 232.481 35.0742 239.37 35.0742C247.846 35.0742 255.274 38.2203 260.221 43.1257C269.053 51.7626 269.405 61.1739 269.405 84.7439V138.929H243.441V90.8242C243.441 74.5241 243.088 71.1859 240.433 66.8776C237.607 62.1633 233.538 61.1714 229.648 61.1714C222.586 61.1714 219.054 66.277 218.522 67.0682C215.689 71.9751 215.689 80.4184 215.689 88.6634V138.925H189.723V87.6857C189.723 76.6904 189.723 71.7815 187.068 67.2618C185.127 63.9318 181.236 61.1719 176.47 61.1719C174.177 61.1719 171.874 61.7654 169.752 62.9505C162.152 67.2618 161.979 74.7279 161.979 93.9708V138.929H135.997V37.2258H161.798ZM372.706 37.2258H399.201L372.706 138.925H348.485L333.11 70.2153L317.923 138.925H293.366L266.86 37.2258H293.366L307.325 100.84L321.635 37.2258H344.602L358.747 100.84L372.706 37.2258ZM455.091 138.925H480.542V37.0332H455.621V50.1842C451.034 40.3709 443.082 34.6748 433.008 34.6748C415.696 34.6748 393.075 49.5993 393.075 89.6488C393.075 121.456 409.325 141.09 431.063 141.09C445.905 141.09 451.909 132.452 455.087 127.737L455.091 138.925ZM453.755 86.8975C453.755 96.132 452.519 104.965 447.04 111.642C442.443 116.936 437.323 117.335 435.729 117.335C430.608 117.335 424.775 114.19 421.236 105.351C419.124 100.252 418.411 94.1613 418.411 87.8778C418.411 80.0261 419.483 71.9746 423.89 65.5005C427.066 60.9778 432.014 58.0426 436.793 58.0426C440.676 58.0426 444.564 59.9939 447.218 63.14C450.571 66.8776 453.755 73.7456 453.755 86.8975V86.8975Z" fill="#1778BC"/>
<path d="M540.524 37.2256H566.925L537.872 138.142C535.749 145.209 532.401 156.798 527.272 162.491C522.496 167.596 516.842 169.956 495.817 169.956C492.811 169.956 491.581 169.752 488.927 169.562V146.979H495.817C498.294 146.979 504.122 146.979 506.77 144.43C508.893 142.656 510.661 138.34 510.661 134.214C510.661 132.06 509.595 128.122 508.718 125.575L480.445 37.2256H508.716L525.325 105.742L540.524 37.2256ZM61.5158 0L17.8903 138.924H49.9361L58.077 109.409H98.9909L107.321 138.924H139.548L94.1002 0H61.5158ZM77.9866 30.5081L91.9288 84.0287H64.7843L77.9866 30.5081Z" fill="#1778BC"/>
</g>
<defs>
<clipPath id="clip0_310_2677">
<rect width="588.928" height="200" fill="white"/>
</clipPath>
</defs>
</svg>
