<svg width="612" height="200" viewBox="0 0 612 200" fill="none" xmlns="http://www.w3.org/2000/svg">
<path fill-rule="evenodd" clip-rule="evenodd" d="M610.33 4.52583C611.529 19.8041 612.016 36.9126 610.297 52.2072L608.101 51.498C605.101 38.0499 599.172 22.8042 584.554 15.9903C575.44 12.7745 563.426 12.8627 553.602 14.3824L551.808 17.6701L554.373 177.453C558.452 187.251 570.096 186.434 578.838 187.104C579.574 188.552 578.142 192.931 578.142 192.931L485.302 191.764C484.211 191.042 483.469 189.594 484.554 188.49C494.009 186.607 507.846 187.967 510.673 175.571L509.186 14.6896C495.705 12.9673 479.685 12.3496 469.184 20.7911C461.236 29.5822 454.752 39.4584 454.834 51.4719C453.756 52.9327 451.922 51.8575 450.837 52.2203C450.014 39.1251 449.517 19.8401 450.87 5.26441L481.443 4.32649L610.33 4.52583V4.52583ZM156.258 42.635C158.902 56.8119 154.271 71.4039 143.781 80.5775C136.905 86.4469 128.199 90.8752 119.483 93.8492C123.872 97.4571 130.062 97.4179 135.179 100.294C149.791 107.108 163.357 121.572 163.84 138.677C164.314 153.966 160.412 168.551 147.742 178.463C117.679 200.879 73.9125 189.539 37.1661 192.702L1.85774 192.588C1.11915 191.496 1.4721 190.042 1.4623 188.584C9.08675 186.343 19.6655 188.82 23.9663 179.323L25.6952 165.848L24.316 20.6244C21.6885 9.35607 9.68807 10.892 0.936138 9.13382C0.200818 8.41157 -0.537769 6.59452 0.550504 5.49971L1.63224 4.76113C43.1435 6.29059 82.0598 0.20215 121.071 8.65996C136.032 14.0196 152.863 25.9155 156.258 42.635V42.635ZM67.9711 15.9511C68.1411 40.7036 67.9711 68.7274 68.847 89.8359C84.5207 92.2772 99.7794 87.4372 107.691 73.5511C114.884 60.7565 112.558 40.7558 105.554 28.4286C96.7303 16.4805 82.1481 13.6667 67.9711 15.9511V15.9511ZM68.5692 102.219L68.2718 164.459C68.3208 170.646 67.628 176.113 73.4844 180.444C83.6972 183.643 96.4329 182.46 105.113 174.757C119.564 158.639 119.774 136.798 111.273 117.935C104.597 100.5 84.2037 99.5552 68.5692 102.219V102.219Z" fill="#1778BC"/>
<path fill-rule="evenodd" clip-rule="evenodd" d="M420.026 18.9547C424.84 30.2034 423.114 44.0536 416.63 53.9265C411.581 60.8711 406.156 66.0086 399.286 71.8781C407.048 89.3002 418.078 105.239 429.843 121.171L443.419 137.089C449.592 134.861 450.988 125.759 455.318 120.265C456.344 110.794 467.56 99.7941 457.295 90.7676C455.099 88.9636 450.376 90.8166 451.435 86.4439C465.632 84.8883 481.652 85.506 498.757 85.0223C498.764 86.4799 500.231 87.9211 499.153 89.0225C496.254 91.9507 491.518 90.5323 488.25 92.3722C466.848 103.441 465.566 128.936 452.226 146.495C455.922 154.845 464.691 159.515 471.286 165.293C479.678 168.146 488.021 164.081 493.44 157.129C495.254 157.116 496.358 158.201 496.368 160.022C493.911 173.509 483.799 184.866 471.469 191.503C464.939 194.823 456.213 196.34 449.275 193.84C440.883 190.987 433.925 184.483 426.232 179.075C419.702 181.666 414.646 187.889 408.486 191.216C389.989 201.902 361.602 203.19 342.239 193.137C330.186 187.392 320.646 176.172 312.564 165.672L310.738 165.685C298.133 185.071 277.073 193.222 253.765 192.66L153.654 192.265C152.193 191.908 153.275 190.444 152.905 189.359C159.442 187.496 167.095 188.166 172.52 183.032L176.462 174.267C177.906 120.383 175.762 74.1723 175.383 20.3044C171.677 9.77791 160.386 9.48705 151.278 8.82036L151.255 5.18296C181.46 4.24415 211.683 4.03275 241.899 4.54895C265.207 5.84638 289.256 8.95108 302.522 31.4257C309.143 41.2104 310.692 54.6651 306.401 65.9792C299.95 80.5875 285.818 89.4212 272.011 93.8821C285.887 99.2418 300.502 107.151 310.427 120.55L311.881 120.537C320.862 103.373 335.676 87.2577 353.461 79.1201C347.513 61.6882 332.82 42.8673 343.964 22.7653C354.036 5.9477 374.001 -3.65067 394.78 1.30375C404.63 3.41166 414.499 9.53279 420.026 18.9547V18.9547ZM219.058 17.0853C218.499 41.1123 218.313 66.2243 219.931 90.2349L227.222 90.9147C241.418 91.1826 253.742 83.4536 259.844 71.3944C265.586 58.9822 264.723 40.0567 256.638 28.8308C248.183 16.8762 232.14 13.3532 219.058 17.0853ZM381.485 25.4124C375.39 38.9194 386.75 49.4002 391.557 60.6522C399.561 59.1391 406.78 50.3545 410.369 43.0503C412.143 36.4847 411.721 28.8439 407.316 23.7784C400.718 16.5428 386.887 17.0036 381.485 25.4124ZM360.109 92.5356C350.337 100.974 343.507 113.399 347.245 127.207C351.383 146.106 366.802 165.653 386.136 170.976C395.25 173.094 406.528 172.29 411.94 164.976C402.041 154.489 393.218 142.897 384.763 131.311C376.309 118.628 370.024 104.114 360.109 92.5356V92.5356ZM219.656 102.977C220.185 126.998 218.176 151.77 220.525 175.411C223.48 180.486 229.686 183.359 235.869 182.951C245.699 182.509 254.772 178.45 261.269 170.395C270.615 153.224 271.161 127.373 258.677 111.804C248.771 101.686 233.098 98.5162 219.656 102.977V102.977Z" fill="#1778BC"/>
</svg>
