<svg width="172" height="32" viewBox="0 0 172 32" fill="none" xmlns="http://www.w3.org/2000/svg">
<path d="M45.5075 23.1104C45.5075 25.0908 44.6736 26.0288 43.0059 26.0288C41.3382 26.0288 40.5044 25.0907 40.5044 23.1104V2.68095H35.814V23.0061C35.814 27.6964 38.524 30.198 43.0059 30.198C47.4879 30.198 50.1978 27.5921 50.1978 23.0061V2.68095H45.5075V23.1104ZM14.0302 15.5014C16.3233 14.5633 17.2613 12.166 17.2613 9.76874C17.2613 5.1825 15.0725 2.57684 10.0694 2.57684H3.08594V29.6766H10.4865C15.8023 29.6766 17.7827 26.3411 17.7827 21.8592C17.7827 18.4196 16.3234 16.5434 14.0304 15.501L14.0302 15.5014ZM7.77628 6.43327H9.54823C11.6329 6.43327 12.571 7.68404 12.571 10.2899C12.571 12.583 11.2159 13.7295 9.44391 13.7295H7.67196L7.77628 6.43327ZM9.65244 25.9247H7.77628V17.5861H9.23553C12.0498 17.5861 13.0922 18.9411 13.0922 21.7553C13.0922 24.4653 12.1541 25.9245 9.65259 25.9245L9.65244 25.9247ZM59.0583 17.7946H65.1038V13.7295H59.0583V6.74602H66.8757V2.68095H54.368V29.7807H67.3969V25.7156H59.0583V17.7946ZM26.2263 2.68095H21.6401V29.7807H33.6266V25.7156H26.3304V2.67988L26.2263 2.68095ZM144.946 29.7807H149.637V2.68095H144.946V29.7807ZM133.793 2.26282C128.894 2.26282 126.602 5.38986 126.602 9.24628V23.2134C126.602 27.0701 128.895 30.1969 133.793 30.1969C133.793 30.1969 136.399 30.0927 138.38 28.5292L140.881 30.1969V23.1091V16.1256H133.377V19.7736H136.712V23.1091V23.2133C136.712 26.2361 134.106 26.1317 134.106 26.1317H133.793C131.917 26.1317 131.292 25.1937 131.292 23.109V9.35052C131.292 7.37012 131.917 6.3278 133.793 6.3278C135.67 6.3278 136.295 7.26589 136.295 9.35052V11.4351H140.985V9.24635C140.985 5.38971 138.692 2.26288 133.793 2.26288L133.793 2.26282ZM87.306 2.26282C82.407 2.26282 80.2182 5.38986 80.2182 9.24628V23.2134C80.2182 27.0701 82.5113 30.1969 87.4101 30.1969C92.3089 30.1969 94.602 27.0699 94.602 23.2134V9.24628C94.4978 5.38964 92.2048 2.26282 87.3058 2.26282H87.306ZM89.8075 23.1091C89.8075 25.0895 89.1822 26.1318 87.306 26.1318C85.4298 26.1318 84.8045 25.1937 84.8045 23.1091V9.3506C84.8045 7.37021 85.4298 6.32788 87.306 6.32788C89.1822 6.32788 89.8075 7.26597 89.8075 9.3506V23.1091ZM164.645 2.67967V18.7313L158.287 2.67967H154.118V29.7794H158.287V13.7278L164.645 29.7794H168.814V2.67967H164.645ZM117.637 29.7794H122.327V2.67967H117.637V29.7794ZM112.947 10.6007C112.947 4.76372 110.341 2.57492 105.025 2.57492H98.4582V29.6747H103.149V18.6261C103.982 18.6261 104.92 18.6261 105.546 18.5219L108.881 29.7789H113.572L109.611 17.4795C111.279 16.7499 112.946 14.978 112.946 10.6002L112.947 10.6007ZM104.921 14.7699H103.253V6.43135H104.921C107.422 6.43135 108.36 7.36944 108.36 10.6005C108.36 13.8317 107.422 14.7697 104.921 14.7697V14.7699Z" fill="#1778BC"/>
</svg>
