<svg width="1845" height="200" viewBox="0 0 1845 200" fill="none" xmlns="http://www.w3.org/2000/svg">
<g clip-path="url(#clip0_310_2673)">
<path d="M1713.13 66.875C1715 67.5 1715.63 67.5 1716.25 67.5H1816.88C1819.38 67.5 1821.88 65.625 1823.13 63.75C1828.75 56.875 1833.75 49.375 1839.37 42.5C1845.62 33.75 1847.5 23.75 1841.88 13.75C1836.88 4.375 1828.75 -0.625 1817.5 -0.625C1758.75 -0.625 1700.63 -0.625 1641.88 -0.625C1613.75 -0.625 1590 10.625 1572.5 33.125C1541.25 73.75 1510.63 114.375 1480 155.625C1473.75 164.375 1472.5 173.75 1477.5 183.75C1482.5 193.75 1490.63 198.125 1501.88 198.125H1678.75C1706.88 198.125 1729.38 186.25 1747.5 165C1751.88 160 1756.25 155 1759.38 150C1766.88 136.875 1776.88 130 1791.88 133.75C1795.63 134.375 1798.13 132.5 1800.63 129.375C1808.75 118.75 1816.88 108.125 1825 96.875C1825.63 95.625 1826.87 94.375 1827.5 92.5C1783.75 92.5 1741.25 92.5 1698.13 92.5C1696.25 92.5 1693.13 94.375 1691.88 96.25C1679.38 113.125 1666.88 129.375 1654.38 146.25C1648.75 154.375 1641.25 158.125 1631.25 158.125C1622.5 158.125 1613.13 158.75 1604.38 158.125C1601.25 158.125 1597.5 156.25 1596.25 153.75C1595 151.875 1596.25 146.875 1597.5 145C1621.25 113.75 1644.38 81.875 1668.12 50.625C1672.5 44.375 1679.37 41.25 1686.88 41.25C1696.88 41.25 1706.88 40.625 1716.88 41.25C1719.38 41.25 1723.75 43.125 1724.38 45C1725.63 47.5 1724.38 51.25 1723.13 53.75C1720 58.75 1716.88 62.5 1713.13 66.875V66.875ZM1533.75 9.31323e-09H1526.88C1507.5 9.31323e-09 1488.13 9.31323e-09 1468.75 9.31323e-09C1464.38 9.31323e-09 1461.88 1.25 1458.75 5C1436.25 35 1413.75 65 1391.25 95C1390 96.875 1388.13 98.75 1386.25 101.25C1385.63 98.75 1385 97.5 1384.38 96.25C1377.5 66.25 1370 36.25 1363.75 6.25C1362.5 1.875 1361.25 9.31323e-09 1356.25 9.31323e-09C1332.5 9.31323e-09 1308.13 9.31323e-09 1284.38 9.31323e-09C1279.38 9.31323e-09 1276.25 1.25 1273.13 5.625C1226.25 68.125 1179.38 130 1132.5 192.5C1131.25 194.375 1130 196.25 1128.13 198.125C1130.63 198.125 1132.5 198.75 1133.75 198.75H1193.12C1196.88 198.75 1199.38 197.5 1201.88 194.375C1224.38 164.375 1246.25 135 1268.75 105C1270 103.125 1271.88 101.25 1273.75 98.75C1274.38 101.875 1275.63 104.375 1275.63 106.25C1282.5 135 1288.75 163.75 1295.63 192.5C1296.88 197.5 1298.13 198.75 1303.13 198.75H1376.88C1380.63 198.75 1383.75 197.5 1386.25 194.375C1415 155.625 1444.38 117.5 1473.13 78.75C1493.75 53.125 1513.13 27.5 1533.75 9.31323e-09V9.31323e-09ZM1036.25 0.625C1033.75 0.625 1032.5 0.625 1031.25 0.625C961.875 0.625 892.5 0.625 823.125 0.625C820.625 0.625 816.875 2.5 815 5C767.5 67.5 720.625 130.625 673.125 193.125C671.875 195 671.25 196.25 669.375 198.75H678.125C741.25 198.75 804.375 198.125 868.125 199.375C881.875 199.375 891.25 196.875 898.125 184.375C903.125 175.625 910.625 167.5 917.5 158.125H808.75C810.625 155.625 811.25 153.75 812.5 152.5C819.375 143.125 826.875 133.125 833.75 123.75C836.25 120 839.375 118.75 843.75 118.75H941.25C945.625 118.75 948.125 117.5 950.625 114.375C958.75 103.75 966.875 93.125 975 81.875C975.625 80.625 976.25 79.375 977.5 76.875H868.75C876.875 66.25 884.375 56.25 891.25 46.875C894.375 42.5 897.5 40.625 903.125 40.625H1000C1002.5 40.625 1005.63 40 1006.88 38.125C1016.88 26.25 1026.25 13.75 1036.25 0.625V0.625ZM950 198.75H956.875H1051.25C1056.25 198.75 1058.75 196.875 1061.88 193.125C1108.75 130.625 1155.62 68.75 1202.5 6.25C1203.75 4.375 1205 2.5 1206.88 9.31323e-09C1204.38 9.31323e-09 1202.5 9.31323e-09 1200.63 9.31323e-09C1168.75 9.31323e-09 1136.88 9.31323e-09 1105 9.31323e-09C1100.63 9.31323e-09 1098.13 1.875 1095.63 5C1048.75 67.5 1001.25 130 954.375 192.5C953.125 194.375 951.875 196.25 950 198.75V198.75ZM317.5 104.375C328.125 118.75 328.125 125.625 317.5 139.375C311.25 147.5 305.625 155.625 299.375 163.125C281.25 186.25 257.5 198.75 227.5 198.75C153.75 200 78.75 198.75 4.375 198.75C3.125 198.75 1.875 198.75 -0.625 198.125C1.25 195.625 2.5 193.75 3.75 191.875C50.625 129.375 97.5 67.5 144.375 5C147.5 1.875 150.625 9.31323e-09 155.625 9.31323e-09H366.25C378.125 9.31323e-09 387.5 3.75 393.125 14.375C398.75 25 396.25 35.625 388.75 45C381.875 54.375 375 63.75 367.5 72.5C356.25 86.875 341.25 96.875 323.75 101.875C321.875 102.5 320 103.75 317.5 104.375V104.375ZM138.125 157.5C155.625 157.5 171.875 158.125 187.5 156.875C192.5 156.25 198.75 151.875 202.5 147.5C207.5 143.125 210.625 137.5 214.375 131.875C216.25 129.375 217.5 125 216.25 123.125C215 121.25 211.25 119.375 208.125 118.75C196.875 118.125 185.625 118.75 173.75 118.125C168.125 118.125 165 120 161.875 124.375C156.875 131.25 151.875 138.125 146.875 145C145 148.75 141.875 152.5 138.125 157.5V157.5ZM198.75 77.5H230C257.5 77.5 257.5 77.5 273.125 55.625C273.125 55.625 273.75 55 273.75 54.375C274.375 51.25 276.25 47.5 275 45.625C273.75 43.75 270 41.25 266.875 41.25C254.375 40.625 241.875 41.25 230 41.25C228.125 41.25 226.25 41.875 225 43.125C216.25 53.75 208.125 65 198.75 77.5V77.5ZM478.125 200C448.75 200 417.5 198.75 388.125 198.75C376.25 198.75 366.875 195 361.25 184.375C355.625 173.125 358.125 163.125 365.625 153.75C395 115.625 423.75 76.875 452.5 38.125C471.875 13.125 497.5 9.31323e-09 529.375 9.31323e-09H699.375C711.25 9.31323e-09 720.625 3.75 725.625 14.375C730.625 25 728.75 35 721.25 44.375C691.875 83.125 663.125 121.875 633.75 160.625C615 185 590 198.125 559.375 198.125C531.25 198.75 505.625 200 478.125 200ZM501.875 158.125H515.625C523.75 158.125 530.625 155 536.25 148.125C560 116.875 583.125 85.625 606.875 54.375C608.75 51.875 609.375 47.5 608.75 45.625C607.5 43.125 603.75 41.25 600.625 41.25C590.625 40.625 581.25 41.25 571.25 41.25C563.75 41.25 557.5 44.375 553.125 50C528.75 81.875 505 113.75 481.25 145.625C480 147.5 479.375 151.875 480 153.75C480.625 155.625 485 157.5 487.5 157.5C492.5 158.125 497.5 158.125 501.875 158.125V158.125Z" fill="#1778BC"/>
</g>
<defs>
<clipPath id="clip0_310_2673">
<rect width="1845" height="200" fill="white"/>
</clipPath>
</defs>
</svg>
