<svg width="40" height="40" viewBox="0 0 40 40" fill="none" xmlns="http://www.w3.org/2000/svg">
<path d="M30.0002 18.3334V21.6667H36.6668V18.3334H30.0002ZM26.6668 29.35C28.2668 30.5334 30.3502 32.1 32.0002 33.3334C32.6668 32.45 33.3335 31.55 34.0002 30.6667C32.3502 29.4334 30.2668 27.8667 28.6668 26.6667C28.0002 27.5667 27.3335 28.4667 26.6668 29.35ZM34.0002 9.33335C33.3335 8.45002 32.6668 7.55002 32.0002 6.66669C30.3502 7.90002 28.2668 9.46669 26.6668 10.6667C27.3335 11.55 28.0002 12.45 28.6668 13.3334C30.2668 12.1334 32.3502 10.5834 34.0002 9.33335ZM6.66683 15C4.8335 15 3.3335 16.5 3.3335 18.3334V21.6667C3.3335 23.5 4.8335 25 6.66683 25H8.3335V31.6667H11.6668V25H13.3335L21.6668 30V10L13.3335 15H6.66683ZM25.8335 20C25.8335 17.7834 24.8668 15.7834 23.3335 14.4167V25.5667C24.8668 24.2167 25.8335 22.2167 25.8335 20Z" fill="#4DA9E9"/>
</svg>
