<svg width="40" height="40" viewBox="0 0 40 40" fill="none" xmlns="http://www.w3.org/2000/svg">
<path d="M16.6668 26.6667V25H5.01683L5.00016 31.6667C5.00016 33.5167 6.4835 35 8.3335 35H31.6668C33.5168 35 35.0002 33.5167 35.0002 31.6667V25H23.3335V26.6667H16.6668ZM33.3335 11.6667H26.6502V8.33333L23.3168 5H16.6502L13.3168 8.33333V11.6667H6.66683C4.8335 11.6667 3.3335 13.1667 3.3335 15V20C3.3335 21.85 4.81683 23.3333 6.66683 23.3333H16.6668V20H23.3335V23.3333H33.3335C35.1668 23.3333 36.6668 21.8333 36.6668 20V15C36.6668 13.1667 35.1668 11.6667 33.3335 11.6667ZM23.3335 11.6667H16.6668V8.33333H23.3335V11.6667Z" fill="#4DA9E9"/>
</svg>
