<svg width="40" height="40" viewBox="0 0 40 40" fill="none" xmlns="http://www.w3.org/2000/svg">
<path d="M18.7168 10C15.9502 10 13.3502 11.1 11.4502 12.8833C10.9002 11.2167 9.35016 10 7.50016 10C6.39509 10 5.33529 10.439 4.55388 11.2204C3.77248 12.0018 3.3335 13.0616 3.3335 14.1667C3.3335 15.2717 3.77248 16.3315 4.55388 17.1129C5.33529 17.8943 6.39509 18.3333 7.50016 18.3333C7.85016 18.3333 8.1835 18.2833 8.51683 18.2C8.4335 18.6167 8.36683 19.05 8.35016 19.5C8.27691 20.9511 8.52043 22.4008 9.06382 23.7483C9.60721 25.0958 10.4374 26.3089 11.4968 27.3033C12.5562 28.2976 13.8194 29.0494 15.1986 29.5065C16.5778 29.9636 18.0399 30.1149 19.4835 29.95C23.7335 29.4833 27.2835 26.1833 28.1335 22C28.3835 20.8167 28.3835 19.6667 28.2335 18.5667C28.0835 17.5667 28.8668 16.6833 29.8835 16.6833H36.6668V10H18.7168ZM7.50016 15C7.0335 15 6.66683 14.6333 6.66683 14.1667C6.66683 13.7 7.0335 13.3333 7.50016 13.3333C7.96683 13.3333 8.3335 13.7 8.3335 14.1667C8.3335 14.6333 7.96683 15 7.50016 15ZM18.3335 25C15.5668 25 13.3335 22.7667 13.3335 20C13.3335 17.2333 15.5668 15 18.3335 15C21.1002 15 23.3335 17.2333 23.3335 20C23.3335 22.7667 21.1002 25 18.3335 25Z" fill="#4DA9E9"/>
<path d="M18.3333 23.3334C20.1743 23.3334 21.6667 21.841 21.6667 20C21.6667 18.1591 20.1743 16.6667 18.3333 16.6667C16.4924 16.6667 15 18.1591 15 20C15 21.841 16.4924 23.3334 18.3333 23.3334Z" fill="#4DA9E9"/>
</svg>
