<svg width="302" height="200" viewBox="0 0 302 200" fill="none" xmlns="http://www.w3.org/2000/svg">
<path d="M32.5224 131.892C32.5224 143.389 35.0448 152.215 38.3442 157.555C42.669 164.55 49.119 167.519 55.6951 167.519C64.1757 167.519 71.9349 165.414 86.8869 144.734C98.8687 128.158 112.981 104.892 122.478 90.3059L138.561 65.5944C149.733 48.4327 162.665 29.3552 177.492 16.4237C189.6 5.86839 202.654 0.00488281 215.795 0.00488281C237.857 0.00488281 258.872 12.7901 274.956 36.7688C292.557 63.0291 301.101 96.1077 301.101 130.242C301.101 150.535 297.102 165.446 290.295 177.226C283.72 188.617 270.903 200 249.344 200V167.514C267.804 167.514 272.41 150.55 272.41 131.137C272.41 103.473 265.96 72.7734 251.751 50.8367C241.669 35.2767 228.601 25.7695 214.224 25.7695C198.674 25.7695 186.162 37.499 172.099 58.4066C164.622 69.5169 156.948 83.0551 148.329 98.3325L138.842 115.139C119.788 148.933 114.96 156.627 105.431 169.325C88.7308 191.563 74.4687 199.995 55.6951 199.995C33.4229 199.995 19.3399 190.35 10.6171 175.817C3.49742 163.975 0 148.435 0 130.73L32.5224 131.892Z" fill="#1778BC"/>
<path d="M25.6436 39.0568C40.5539 16.0733 62.072 0 86.7519 0C101.044 0 115.256 4.2302 130.091 16.3457C146.32 29.5887 163.618 51.4082 185.199 87.3535L192.937 100.25C211.617 131.37 222.245 147.38 228.465 154.93C236.464 164.625 242.066 167.515 249.344 167.515C267.804 167.515 272.41 150.552 272.41 131.139L301.101 130.238C301.101 150.532 297.102 165.442 290.295 177.222C283.72 188.614 270.903 199.996 249.344 199.996C235.94 199.996 224.067 197.085 210.936 184.697C200.846 175.19 189.041 158.301 179.963 143.118L152.958 98.0097C139.41 75.3717 126.977 58.4926 119.788 50.8482C112.049 42.6274 102.101 32.7014 86.2273 32.7014C73.3803 32.7014 62.4693 41.7168 53.3391 55.5072L25.6436 39.0568Z" fill="#1778BC"/>
<path d="M86.2273 32.7014C73.3803 32.7014 62.4693 41.7168 53.3391 55.5072C40.4278 74.9934 32.5287 104.018 32.5287 131.892C32.5287 143.389 35.0511 152.215 38.3506 157.555L10.6171 175.817C3.49742 163.975 0 148.435 0 130.73C0 98.5319 8.83751 64.9728 25.6435 39.0568C40.5539 16.0733 62.072 0 86.7519 0L86.2273 32.7014Z" fill="#1778BC"/>
</svg>
