<svg width="704" height="200" viewBox="0 0 704 200" fill="none" xmlns="http://www.w3.org/2000/svg">
<path fill-rule="evenodd" clip-rule="evenodd" d="M346.154 157.991C313.037 157.991 283.38 139.21 283.38 113.013C283.38 86.8123 313.037 68.0277 346.65 68.0277C360.987 68.0277 374.331 71.9838 389.16 79.892L378.775 93.2365C369.383 88.7883 358.511 85.8202 346.65 85.8202C332.81 85.8202 316.497 93.7325 316.497 113.009C316.497 132.282 332.314 140.19 346.65 140.19C358.511 140.19 369.887 137.722 379.275 133.77L389.652 147.606C377.295 154.531 362.467 157.991 346.154 157.991V157.991ZM565.121 113.013C565.121 132.286 549.301 140.194 534.972 140.194C521.128 140.194 504.815 132.286 504.815 113.013C504.815 93.2365 521.128 85.8242 534.972 85.8242C549.301 85.8202 565.121 93.2365 565.121 113.013ZM534.972 157.991C568.582 157.991 598.239 139.21 598.239 113.013C598.239 86.3203 568.582 68.0277 534.972 68.0277C501.855 68.0277 472.198 86.3163 472.198 113.013C472.198 139.21 501.855 157.991 534.972 157.991ZM665.953 66.5476H664.969H664.469C656.068 66.5476 648.156 69.0197 641.732 72.9718C641.732 72.9718 640.248 67.0396 611.583 67.0396V155.523H642.724V102.137C642.724 94.7206 648.152 86.3163 658.045 86.3163C664.965 86.3163 671.881 91.2564 671.881 97.1886V155.519H703.022V95.7086C703.026 79.8921 686.221 66.5476 665.953 66.5476ZM238.399 70.0037H268.552V155.523H238.399V70.0037ZM454.894 88.7883C459.838 88.7883 464.786 89.7764 468.738 91.7564V69.0157C464.786 68.5197 461.322 68.5197 457.862 68.5197C449.454 68.5197 441.057 70.4997 434.625 74.4519C434.133 73.4638 430.181 69.0157 403.984 69.0157V155.519H434.625V103.613C434.625 95.7086 444.517 88.7883 454.894 88.7883ZM180.073 121.409V156.011H211.214V93.2365C202.317 102.629 191.937 112.021 180.073 121.409Z" fill="#1778BC"/>
<path fill-rule="evenodd" clip-rule="evenodd" d="M211.214 93.2365C245.815 57.6513 259.655 25.0262 248.779 9.20969C237.411 -7.59486 201.329 -0.674632 154.864 24.0422C152.884 25.0302 150.912 26.0182 149.428 27.0063C147.452 28.4903 148.44 29.4784 150.416 28.9824C151.9 28.4863 153.876 27.4983 155.852 26.5103C190.945 10.2017 218.13 7.23763 229.006 18.602C244.827 36.3946 211.706 93.7325 154.368 136.242C146.46 142.17 134.599 150.578 127.183 155.023C126.687 155.523 126.195 155.523 125.699 156.015C123.719 157.491 121.743 158.483 120.263 159.967C118.779 160.951 119.275 162.435 121.747 161.451C123.7 160.746 125.534 159.745 127.183 158.483C127.679 158.483 128.171 157.991 128.171 157.991C137.071 152.554 149.92 143.654 158.816 137.726C166.232 132.29 173.645 126.85 180.069 121.413C191.937 112.021 202.317 102.629 211.214 93.2365V93.2365Z" fill="#1778BC"/>
<path fill-rule="evenodd" clip-rule="evenodd" d="M134.599 131.794C151.9 131.794 165.74 121.901 173.152 106.089L180.073 91.2563V108.065C190.542 98.5317 199.985 87.9282 208.246 76.4279C208.742 74.9438 208.742 73.9558 208.246 72.4757C203.797 62.5874 193.417 55.6712 181.553 55.6712C169.692 55.6712 159.308 62.5874 154.368 72.4757L141.519 100.157C140.82 101.37 139.811 102.375 138.594 103.07C137.378 103.764 136 104.123 134.599 104.109C132.127 104.109 129.163 102.625 128.175 100.157L114.831 72.4757C112.313 67.5015 108.572 63.2494 103.958 60.1193C113.351 52.7031 122.739 45.7868 131.639 40.3466C134.111 38.8626 135.591 37.8746 137.075 36.8865C138.555 35.4025 138.063 33.9225 135.591 34.9105C133.638 35.6135 131.804 36.6132 130.155 37.8746C120.543 43.4501 111.146 49.3865 101.982 55.6712C100.994 56.1632 100.006 57.1512 99.014 57.6472C95.5539 56.6592 92.0938 55.6712 88.1417 55.6712C71.8291 55.6712 58.4847 69.0156 58.4847 85.8202V89.7763C13.9952 128.826 -8.74553 167.875 3.11886 185.171C12.0192 198.024 33.2719 195.064 58.4807 184.187V200H89.6217V167.875C98.2455 162.787 106.656 157.344 114.831 151.562C116.811 150.078 118.787 149.094 119.775 147.61C121.751 146.126 120.271 145.142 118.787 145.634C117.303 146.626 115.327 147.61 113.35 149.094C65.4049 179.743 32.7798 189.136 20.4274 172.823C10.0471 158.979 27.3477 131.298 58.4887 100.657V172.331C66.893 169.363 77.2693 164.415 89.6297 157.995V91.2603L96.0539 106.093C103.954 121.905 117.299 131.794 134.599 131.794V131.794Z" fill="#1778BC"/>
</svg>
