<svg width="588" height="131" viewBox="0 0 588 131" fill="none" xmlns="http://www.w3.org/2000/svg">
<path d="M0 2.03322H14.5424L40.6056 35.0676V2.03322H55.1178V57.7644H40.1579L14.5424 24.516V57.7644H0V2.03322ZM104.262 41.5434C107.242 38.484 108.775 34.4868 108.775 29.6069C108.775 25.1004 107.242 21.3171 104.189 18.2641C101.136 15.2046 97.2792 13.6778 92.693 13.6778C88.0399 13.6778 84.2508 15.2785 81.1972 18.3315C78.2116 21.3909 76.6854 25.3143 76.6854 30.0476C76.6854 34.7746 78.1448 38.6311 81.1304 41.6905C84.0363 44.6703 87.8922 46.1965 92.6192 46.1965C97.3525 46.1965 101.203 44.6703 104.262 41.5434V41.5434ZM70.6462 51.292C64.828 45.6145 61.9831 38.484 61.9831 29.8273C61.9831 21.1025 64.9751 13.8988 71.0137 8.22182C76.9058 2.75824 84.1095 0 92.7668 0C101.424 0 108.775 2.83848 114.667 8.50962C120.559 14.1133 123.471 21.1031 123.471 29.3244C123.471 38.1962 120.485 45.547 114.519 51.3659C108.627 56.969 101.35 59.808 92.693 59.808C83.7357 59.808 76.397 56.969 70.6457 51.292H70.6462ZM150.299 27.1347C155.32 27.1347 157.791 24.805 157.791 20.1519C157.791 15.4988 155.394 13.1627 150.446 13.1627H145.915V27.1353L150.299 27.1347ZM131.385 2.03496H153.573C159.109 2.03496 163.542 3.56758 167.104 6.54676C170.74 9.74746 172.64 14.0395 172.64 19.4961C172.64 27.2086 169.434 32.3035 163.033 34.7065L177.95 57.7655H160.556L148.846 38.1218H145.915V57.7655H131.385L131.385 2.03496ZM191.569 16.5675H179.774V2.03089H217.896V16.5675H206.094V57.7679H191.57L191.569 16.5675ZM227.068 2.03322H241.598V21.7258H262.002V2.03322H276.539V57.7702H262.002V36.263H241.599V57.7702H227.068L227.068 2.03322ZM306.304 27.1347C311.319 27.1347 313.796 24.805 313.796 20.1519C313.796 15.4988 311.399 13.1627 306.445 13.1627H301.92V27.1353L306.304 27.1347ZM287.39 2.03496H309.578C315.108 2.03496 319.547 3.56758 323.109 6.54676C326.745 9.74746 328.639 14.0395 328.639 19.4961C328.639 27.2086 325.439 32.3035 319.038 34.7065L333.954 57.7655H316.561L304.851 38.1218H301.921V57.7655H287.39V2.03496ZM378.319 41.5434C381.299 38.484 382.825 34.4868 382.825 29.6069C382.825 25.1004 381.299 21.3171 378.239 18.2641C375.187 15.2046 371.33 13.6778 366.744 13.6778C362.097 13.6778 358.302 15.2785 355.248 18.3315C352.275 21.3909 350.742 25.3143 350.742 30.0476C350.742 34.7746 352.195 38.6311 355.181 41.6905C358.087 44.6703 361.95 46.1965 366.677 46.1965C371.409 46.1965 375.26 44.6703 378.319 41.5434ZM344.709 51.292C338.878 45.6145 336.04 38.484 336.04 29.8273C336.04 21.1025 339.032 13.8988 345.07 8.22182C350.963 2.75824 358.166 0 366.824 0C375.487 0 382.825 2.83848 388.717 8.50962C394.609 14.1133 397.528 21.1031 397.528 29.3244C397.528 38.1962 394.541 45.547 388.576 51.3659C382.685 56.969 375.401 59.808 366.744 59.808C357.792 59.808 350.454 56.969 344.709 51.292V51.292ZM425.96 27.6441C431.705 27.6441 434.544 25.1672 434.544 20.1519C434.544 15.3512 431.778 13.0214 426.101 13.0214H421.141V27.6441H425.96ZM406.604 2.03496H431.49C436.873 2.03496 441.239 3.77572 444.365 7.41772C447.505 10.7655 449.025 15.2715 449.025 20.7345C449.025 25.9702 447.505 30.1883 444.365 33.3885C441.312 36.6624 437.094 38.3421 431.925 38.3421H421.141V57.7655H406.604V2.03496ZM70.1346 121.561C64.7518 115.883 61.9866 108.753 61.9866 100.243C61.9866 91.8749 64.7518 84.8183 70.1346 79.0669C75.7325 73.1812 82.6479 70.2689 90.9493 70.2689C102.151 70.2689 110.514 74.9226 116.117 84.2357L104.481 90.6423C104.192 89.9127 103.597 89.1097 102.727 88.1655C99.6066 84.677 95.5966 82.9298 90.7964 82.9298C85.9962 82.9298 82.4275 84.8177 80.0303 88.5271C77.9948 91.654 76.9709 95.7309 76.9709 100.826C76.9709 105.988 78.2093 109.992 80.6129 112.977C83.2368 116.251 87.0928 117.852 92.1081 117.852C95.021 117.852 97.7118 116.907 100.115 115.087C102.727 113.119 104.192 110.795 104.481 107.956H91.679V96.3135H119.612V99.3729C119.612 108.827 117.282 116.251 112.549 121.635C107.601 127.238 100.471 130.077 91.0842 130.077C82.5746 130.077 75.5976 127.238 70.1346 121.561V121.561ZM147.168 97.4077C152.183 97.4077 154.66 95.078 154.66 90.4249C154.66 85.7654 152.263 83.4351 147.308 83.4351H142.784V97.4077H147.168ZM128.254 72.3079H150.442C155.972 72.3079 160.411 73.8406 163.973 76.8197C167.614 80.0204 169.503 84.3119 169.503 89.7685C169.503 97.4815 166.303 102.577 159.902 104.98L174.818 128.039H157.425L145.715 108.395H142.784V128.039H128.254V72.3079ZM187.199 125.201C182.245 121.492 179.7 116.397 179.7 109.996V72.3027H194.25V106.937C194.25 113.632 197.597 116.979 204.298 116.979C207.272 116.979 209.84 116.176 211.594 114.576C213.402 112.908 214.353 110.579 214.353 107.666V72.3027H228.889V108.396C228.889 115.453 226.48 120.909 221.606 124.839C217.173 128.327 211.281 130.075 203.998 130.075C197.303 130.075 191.705 128.475 187.199 125.201V125.201ZM272.117 101.111L290.522 72.3074H305.059V128.044H290.546V95.3355H290.522L276.035 118.069H268.328L253.766 95.3355H253.742V128.044H239.175V72.3074H253.742L272.117 101.111ZM349.957 101.111L368.356 72.3074H382.899V128.044H368.381V95.3355H368.356L353.875 118.069H346.168L331.607 95.3355H331.552L331.546 128.044H317.015V72.3074H331.576L349.957 101.111ZM424.996 106.503L419.105 89.4766L413.139 106.503H424.996ZM410.981 72.3039H427.62L448.282 128.041H432.562L428.779 117.71H409.51L405.794 128.041H390.288L410.981 72.3039ZM456.292 72.3062H470.847L496.481 105.34V72.3062H511.005V128.043H496.451L470.835 94.789V128.043H456.292V72.3062ZM456.292 2.03322V16.5826H573.002V128.038H587.544V2.03322H456.292Z" fill="#1778BC"/>
</svg>
