<svg width="1467" height="200" viewBox="0 0 1467 200" fill="none" xmlns="http://www.w3.org/2000/svg">
<g clip-path="url(#clip0_310_2665)">
<path d="M328.042 12.557V157.619C328.042 168.121 328.564 174.59 329.591 177.035C331.477 182.923 337.496 185.883 347.653 185.883H354.427V195.718H274.745V185.883H281.529C288.861 185.883 293.955 184.425 296.828 181.461C299.697 178.515 301.138 170.559 301.138 157.619V12.557H295.213C285.904 12.557 277.521 15.2633 270.098 20.6579C258.903 28.8604 252.405 45.3053 250.624 69.9853H242.157L243.709 2.72559H386.409L387.541 69.9853H378.922C375.334 41.6629 366.859 24.0172 353.48 17.0301C347.722 14.0553 340.706 12.5606 332.417 12.5606L328.042 12.557V12.557Z" fill="#1778BC"/>
<path d="M242.146 127.922V87.5767H282.502V127.922H242.146ZM347.175 127.922V87.5767H387.538V127.922H347.175ZM468.249 127.922V87.5767H508.612V127.922H468.249ZM589.317 127.922V87.5767H629.68V127.922H589.317ZM0 127.922V87.5767H40.3594V127.922H0ZM121.071 127.922V87.5767H161.434V127.922H121.071ZM740.985 195.718H732.082L681.158 20.1683V146.387C681.158 159.284 681.674 167.418 682.715 170.792C685.73 180.852 692.383 185.883 702.679 185.883H706.506V195.718H646.491V185.883H651.193C658.412 185.883 663.542 182.894 666.582 176.879C669.052 171.989 670.286 161.849 670.286 146.438V34.9952C670.286 28.3418 669.996 23.9267 669.43 21.7573C668.294 17.2552 665.777 14.3965 661.873 13.1666C659.606 12.4229 656.272 12.0348 651.897 12.0348H646.491V2.72579H702.494L743.532 144.185L785.603 2.72579H842.574V12.0348H838.722C831.212 12.0348 826.003 13.5185 823.108 16.4752C820.224 19.4391 818.769 27.4022 818.769 40.3607V157.568C818.769 167.995 819.291 174.467 820.343 177.002C822.154 182.919 828.27 185.88 838.722 185.88H842.574V195.707H769.63V185.883H772.177C779.628 185.883 784.881 184.24 787.903 180.953C790.548 178.025 791.868 170.233 791.868 157.521V20.1429L740.985 195.718ZM940.656 85.2187C945.133 95.1589 947.382 109.732 947.382 128.97C947.382 169.671 937.137 190.019 916.665 190.019C896.088 190.019 885.811 169.489 885.811 128.419C885.811 109.641 888.049 95.2568 892.522 85.2187C897.67 73.6895 905.521 67.9176 916.092 67.9176C927.327 67.9176 935.519 73.6895 940.656 85.2187V85.2187ZM872.323 79.7733C862.68 92.8298 857.873 109.315 857.873 129.253C857.873 149.482 862.781 165.894 872.609 178.454C883.747 192.729 898.421 199.861 916.669 199.861C934.797 199.861 949.446 192.725 960.58 178.454C970.411 165.894 975.32 149.402 975.32 128.977C975.32 108.48 970.408 91.9809 960.58 79.4903C949.348 65.2258 934.953 58.0826 917.373 58.0826C898.004 58.0826 882.992 65.3201 872.323 79.7733V79.7733ZM1086.69 127.885C1086.69 168.267 1077.18 188.459 1058.17 188.459C1047.2 188.459 1039.09 182.818 1033.85 171.524C1029.07 161.265 1026.68 146.96 1026.68 128.578C1026.68 110.051 1029.48 95.7756 1035.11 85.7919C1041.02 75.2567 1048.94 69.9782 1058.86 69.9782C1077.41 69.9855 1086.69 89.2963 1086.69 127.885V127.885ZM1028.75 0.13916L987.361 2.20701V11.5124H989.515C994.957 11.5124 998.741 12.6442 1000.85 14.9116C1003.24 17.4547 1004.43 24.0211 1004.43 34.5708V167.138C1004.43 180.162 1003.98 188.02 1003.05 190.755C1002.53 192.279 1001.97 193.923 1001.36 195.715H1010.97C1016.61 186.562 1020.52 181.991 1022.68 181.991C1024.08 181.991 1025.74 182.727 1027.62 184.189C1032.61 188.154 1035.81 190.607 1037.22 191.521C1044.38 196.041 1052.24 198.294 1060.8 198.294C1078.42 198.294 1092.16 190.436 1102.05 174.681C1110.43 161.301 1114.62 145.317 1114.62 126.772C1114.62 105.048 1108.83 87.74 1097.27 74.9084C1088.34 65.0807 1076.87 60.1614 1062.87 60.1614C1046.42 60.1614 1035.04 67.1884 1028.74 81.2607L1028.75 0.13916ZM1173.02 60.1614V163.358C1173.02 174.042 1174.18 180.721 1176.51 183.369C1178.55 185.735 1182.23 186.921 1187.56 186.921H1192.17V195.718H1129.55V186.921H1134.16C1139.48 186.921 1143.23 185.673 1145.42 183.162C1147.6 180.663 1148.69 174.046 1148.69 163.344V94.31C1148.69 83.6188 1147.51 76.9872 1145.13 74.4296C1143.05 72.1622 1139.29 71.0267 1133.87 71.0267H1130.6V62.1276L1173.02 60.1614V60.1614ZM1159.08 1.17672C1163.29 1.17672 1166.93 2.75481 1170 5.8965C1173.05 9.04907 1174.58 12.7386 1174.58 16.9577C1174.58 21.3619 1173.05 25.1058 1170 28.1568C1166.93 31.215 1163.21 32.7314 1158.79 32.7314C1154.47 32.7314 1150.75 31.1896 1147.67 28.0878C1144.57 24.9897 1143.01 21.2784 1143.01 16.9577C1143.01 12.5427 1144.59 8.80964 1147.75 5.75502C1150.88 2.7004 1154.66 1.17672 1159.08 1.17672V1.17672ZM1245.92 0.13916V163.358C1245.92 174.06 1247.08 180.721 1249.4 183.369C1251.45 185.735 1255.13 186.921 1260.45 186.921H1265.06V195.718H1202.45V186.921H1207.06C1212.38 186.921 1216.12 185.673 1218.32 183.162C1220.5 180.663 1221.59 174.046 1221.59 163.365V34.1499C1221.59 23.6438 1220.41 17.0629 1218.04 14.411C1215.94 12.1436 1212.19 11.0081 1206.78 11.0081H1203.5V2.10906L1245.92 0.13916ZM1306.24 118.087C1306.34 108.422 1307.32 100.133 1309.22 93.2253C1313.88 76.3523 1321.81 67.914 1333.03 67.914C1342.91 67.914 1350.04 74.1937 1354.42 86.7496C1357.36 95.2859 1358.83 105.73 1358.83 118.087H1306.24ZM1376.66 88.1209C1366.67 68.1063 1351.72 58.0826 1331.81 58.0826C1318.43 58.0826 1306.96 63.43 1297.43 74.1139C1285.36 87.6275 1279.33 105.632 1279.33 128.121C1279.33 152.605 1285.36 171.314 1297.43 184.262C1307.16 194.648 1319.6 199.865 1334.79 199.865C1355.44 199.865 1371.85 187.632 1384.02 163.184L1375.37 158.66C1371.69 166.293 1368 172.275 1364.32 176.6C1357.61 184.526 1349.26 188.47 1339.25 188.47C1326.4 188.47 1317.33 182.136 1312.05 169.475C1308.26 160.496 1306.34 146.659 1306.23 127.929H1385.55C1385.01 112.155 1382.04 98.8883 1376.66 88.1209V88.1209ZM1425.93 127.922V87.5767H1466.28V127.922H1425.93Z" fill="#1778BC"/>
</g>
<defs>
<clipPath id="clip0_310_2665">
<rect width="1466.28" height="200" fill="white"/>
</clipPath>
</defs>
</svg>
